<svg xmlns="http://www.w3.org/2000/svg" xmlns:xlink="http://www.w3.org/1999/xlink" width="244" zoomAndPan="magnify" viewBox="0 0 183 197.999996" height="264" preserveAspectRatio="xMidYMid meet" version="1.0"><defs><g/><clipPath id="5267a4bb4d"><path d="M 11.535156 0 L 171.285156 0 L 171.285156 153 L 11.535156 153 Z M 11.535156 0 " clip-rule="nonzero"/></clipPath></defs><g clip-path="url(#5267a4bb4d)"><path fill="#000000" d="M 79.859375 0.0273438 C 73.945312 2.921875 68.945312 7.539062 65.597656 13.359375 C 65.535156 13.460938 65.480469 13.570312 65.417969 13.675781 L 27.859375 13.675781 C 26.359375 13.675781 25.136719 14.894531 25.136719 16.402344 L 25.136719 45.164062 L 22.328125 46.992188 C 17.964844 49.828125 14.25 53.65625 11.539062 58.09375 L 11.539062 12.320312 C 11.539062 5.53125 17.023438 0.0351562 23.792969 0.0351562 Z M 114.621094 113.519531 C 114.230469 112.316406 113.761719 111.144531 113.21875 110.023438 C 113.203125 109.988281 113.183594 109.972656 113.171875 109.9375 C 112.617188 108.78125 111.992188 107.671875 111.289062 106.605469 C 111.277344 106.582031 111.257812 106.550781 111.238281 106.53125 C 106.078125 98.632812 97.300781 93.320312 87.277344 92.953125 C 87.265625 92.949219 87.238281 92.949219 87.207031 92.945312 C 86.875 92.933594 86.53125 92.925781 86.195312 92.925781 L 83.714844 92.929688 L 70.855469 92.929688 L 53.164062 92.921875 L 53.203125 92.863281 L 49.273438 92.859375 L 41.480469 92.859375 C 37.859375 92.859375 34.410156 91.675781 31.574219 89.5 C 31 89.066406 30.449219 88.582031 29.925781 88.0625 C 29.429688 87.558594 28.964844 87.027344 28.542969 86.46875 C 26.34375 83.617188 25.148438 80.132812 25.148438 76.472656 C 25.148438 73.597656 25.910156 70.765625 27.328125 68.300781 C 27.695312 67.660156 28.101562 67.046875 28.542969 66.472656 C 31.621094 62.488281 36.40625 60.085938 41.492188 60.089844 L 72.082031 60.089844 L 79.632812 60.09375 C 76.40625 58.492188 73.425781 56.351562 70.808594 53.726562 C 69.179688 52.089844 67.71875 50.300781 66.476562 48.386719 C 66.0625 47.75 65.667969 47.101562 65.300781 46.441406 L 41.496094 46.433594 C 39.441406 46.433594 37.417969 46.644531 35.445312 47.066406 C 33.050781 47.558594 30.734375 48.351562 28.550781 49.40625 C 27.375 49.976562 26.238281 50.613281 25.140625 51.328125 C 21.246094 53.863281 17.929688 57.3125 15.546875 61.464844 C 12.980469 65.914062 11.597656 70.980469 11.539062 76.136719 L 11.539062 76.71875 C 11.554688 79.898438 12.078125 83.007812 13.054688 85.949219 C 13.449219 87.167969 13.929688 88.355469 14.484375 89.503906 C 15.054688 90.683594 15.691406 91.820312 16.410156 92.917969 C 17.523438 94.625 18.828125 96.234375 20.304688 97.710938 C 21.796875 99.203125 23.414062 100.527344 25.136719 101.65625 C 26.234375 102.371094 27.367188 103.015625 28.539062 103.574219 C 32.507812 105.488281 36.882812 106.507812 41.410156 106.523438 C 41.4375 106.515625 41.460938 106.523438 41.484375 106.515625 L 45.339844 106.523438 L 63.035156 106.527344 L 71.957031 106.527344 L 71.929688 106.585938 L 86.191406 106.585938 C 86.445312 106.585938 86.695312 106.589844 86.949219 106.601562 C 90.292969 106.75 93.460938 107.917969 96.105469 109.9375 L 96.199219 110.023438 C 96.753906 110.433594 97.265625 110.898438 97.753906 111.390625 C 100.839844 114.484375 102.542969 118.597656 102.535156 122.984375 C 102.535156 125.859375 101.785156 128.679688 100.355469 131.152344 C 97.441406 136.21875 92.015625 139.363281 86.183594 139.363281 L 53.050781 139.355469 L 49.785156 139.355469 L 27.867188 139.351562 C 26.363281 139.351562 25.140625 138.125 25.140625 136.621094 L 25.136719 107.839844 L 22.3125 105.988281 C 20.300781 104.671875 18.398438 103.113281 16.65625 101.371094 C 14.941406 99.644531 13.40625 97.757812 12.097656 95.753906 C 11.90625 95.464844 11.722656 95.171875 11.539062 94.871094 L 11.542969 140.707031 C 11.539062 147.492188 17.023438 152.992188 23.785156 152.992188 L 45.191406 153.003906 L 49.78125 153.003906 L 86.183594 153.007812 C 88.234375 153.007812 90.269531 152.796875 92.230469 152.382812 C 100.511719 150.667969 107.835938 145.464844 112.140625 137.976562 C 114.753906 133.433594 116.148438 128.246094 116.140625 122.976562 C 116.144531 119.675781 115.613281 116.492188 114.621094 113.519531 Z M 96.636719 13.65625 L 129.773438 13.65625 L 133.035156 13.660156 L 154.953125 13.664062 C 156.457031 13.664062 157.679688 14.890625 157.679688 16.398438 L 157.6875 45.175781 L 160.507812 47.027344 C 162.519531 48.347656 164.421875 49.902344 166.167969 51.648438 C 167.882812 53.371094 169.417969 55.257812 170.726562 57.261719 C 170.914062 57.550781 171.101562 57.84375 171.28125 58.140625 L 171.28125 12.308594 C 171.28125 5.519531 165.800781 0.0234375 159.035156 0.015625 L 137.632812 0.0078125 L 133.039062 0.0078125 L 96.636719 0 C 94.585938 0 92.550781 0.207031 90.585938 0.621094 C 82.304688 2.34375 74.984375 7.542969 70.675781 15.03125 C 68.0625 19.574219 66.671875 24.765625 66.675781 30.03125 C 66.675781 33.335938 67.203125 36.519531 68.199219 39.496094 C 68.589844 40.699219 69.058594 41.867188 69.601562 42.992188 C 69.617188 43.023438 69.636719 43.042969 69.652344 43.082031 C 70.203125 44.234375 70.828125 45.34375 71.527344 46.410156 C 71.539062 46.433594 71.5625 46.460938 71.578125 46.480469 C 76.738281 54.378906 85.515625 59.695312 95.539062 60.0625 C 95.550781 60.0625 95.585938 60.0625 95.609375 60.0625 C 95.945312 60.078125 96.285156 60.082031 96.625 60.082031 L 99.101562 60.078125 L 111.964844 60.078125 L 129.648438 60.085938 L 129.609375 60.144531 L 133.542969 60.148438 L 141.332031 60.148438 C 144.953125 60.148438 148.40625 61.328125 151.242188 63.511719 C 151.8125 63.9375 152.367188 64.429688 152.886719 64.949219 C 153.390625 65.449219 153.851562 65.980469 154.273438 66.542969 C 156.472656 69.394531 157.667969 72.882812 157.667969 76.539062 C 157.667969 79.417969 156.910156 82.246094 155.488281 84.714844 C 155.125 85.347656 154.714844 85.964844 154.277344 86.539062 C 151.203125 90.523438 146.417969 92.925781 141.328125 92.921875 L 110.738281 92.921875 L 103.183594 92.917969 C 106.410156 94.519531 109.390625 96.65625 112.007812 99.285156 C 113.640625 100.921875 115.097656 102.710938 116.339844 104.628906 C 116.753906 105.261719 117.148438 105.914062 117.519531 106.570312 L 141.324219 106.574219 C 143.375 106.574219 145.402344 106.367188 147.371094 105.949219 C 149.769531 105.453125 152.085938 104.65625 154.269531 103.605469 C 155.445312 103.035156 156.578125 102.398438 157.675781 101.683594 C 161.570312 99.148438 164.886719 95.695312 167.277344 91.542969 C 169.835938 87.09375 171.21875 82.03125 171.273438 76.871094 L 171.273438 76.292969 C 171.261719 73.109375 170.742188 70 169.761719 67.058594 C 169.367188 65.84375 168.882812 64.65625 168.335938 63.5 C 167.765625 62.324219 167.125 61.1875 166.402344 60.085938 C 165.289062 58.382812 163.984375 56.773438 162.511719 55.296875 C 161.023438 53.800781 159.402344 52.476562 157.679688 51.347656 C 156.582031 50.632812 155.449219 49.992188 154.273438 49.429688 C 150.308594 47.519531 145.933594 46.5 141.402344 46.484375 C 141.378906 46.488281 141.355469 46.484375 141.328125 46.488281 L 137.476562 46.484375 L 119.785156 46.480469 L 110.859375 46.480469 L 110.890625 46.421875 L 106.960938 46.421875 L 96.625 46.417969 C 96.371094 46.417969 96.117188 46.414062 95.867188 46.402344 C 92.519531 46.253906 89.351562 45.085938 86.710938 43.0625 L 86.617188 42.984375 C 86.066406 42.570312 85.554688 42.109375 85.0625 41.617188 C 81.976562 38.519531 80.269531 34.410156 80.28125 30.027344 C 80.28125 27.148438 81.035156 24.328125 82.457031 21.855469 C 85.378906 16.792969 90.804688 13.648438 96.636719 13.65625 Z M 159.023438 152.972656 C 165.789062 152.972656 171.273438 147.472656 171.273438 140.6875 L 171.273438 94.914062 C 168.5625 99.355469 164.847656 103.183594 160.480469 106.023438 L 157.671875 107.847656 L 157.671875 136.609375 C 157.671875 138.117188 156.457031 139.339844 154.953125 139.339844 L 117.390625 139.339844 C 117.332031 139.4375 117.277344 139.550781 117.214844 139.652344 C 113.867188 145.476562 108.867188 150.09375 102.953125 152.984375 Z M 159.023438 152.972656 " fill-opacity="1" fill-rule="nonzero"/></g><g fill="#ff00ff" fill-opacity="1"><g transform="translate(6.586697, 186.608575)"><g><path d="M 7.546875 0.296875 C 6.660156 0.296875 5.816406 0.210938 5.015625 0.046875 C 4.222656 -0.109375 3.492188 -0.347656 2.828125 -0.671875 C 2.148438 -0.992188 1.617188 -1.421875 1.234375 -1.953125 C 0.847656 -2.492188 0.65625 -3.09375 0.65625 -3.75 C 0.65625 -4.144531 0.75 -4.503906 0.9375 -4.828125 C 1.125 -5.160156 1.367188 -5.414062 1.671875 -5.59375 C 1.984375 -5.769531 2.316406 -5.859375 2.671875 -5.859375 C 2.992188 -5.859375 3.289062 -5.769531 3.5625 -5.59375 C 3.832031 -5.425781 4.046875 -5.195312 4.203125 -4.90625 C 4.367188 -4.625 4.453125 -4.328125 4.453125 -4.015625 C 4.453125 -3.535156 4.3125 -3.160156 4.03125 -2.890625 C 3.757812 -2.628906 3.375 -2.460938 2.875 -2.390625 C 3.414062 -2.015625 4.019531 -1.734375 4.6875 -1.546875 C 5.351562 -1.359375 6.179688 -1.265625 7.171875 -1.265625 C 8.835938 -1.265625 10.046875 -1.664062 10.796875 -2.46875 C 11.203125 -2.90625 11.40625 -3.425781 11.40625 -4.03125 C 11.40625 -4.726562 11.171875 -5.296875 10.703125 -5.734375 C 10.492188 -5.921875 10.195312 -6.101562 9.8125 -6.28125 C 9.425781 -6.46875 9 -6.632812 8.53125 -6.78125 C 8 -6.9375 7.4375 -7.085938 6.84375 -7.234375 C 5.351562 -7.609375 4.160156 -8.039062 3.265625 -8.53125 C 2.367188 -9.03125 1.742188 -9.585938 1.390625 -10.203125 C 1.046875 -10.816406 0.875 -11.550781 0.875 -12.40625 C 0.875 -13.300781 1.144531 -14.109375 1.6875 -14.828125 C 2.226562 -15.554688 2.984375 -16.125 3.953125 -16.53125 C 4.929688 -16.9375 6.039062 -17.140625 7.28125 -17.140625 C 8.363281 -17.140625 9.4375 -16.96875 10.5 -16.625 C 11.113281 -16.425781 11.640625 -16.1875 12.078125 -15.90625 C 12.515625 -15.632812 12.875 -15.289062 13.15625 -14.875 C 13.4375 -14.4375 13.578125 -13.960938 13.578125 -13.453125 C 13.578125 -12.785156 13.40625 -12.242188 13.0625 -11.828125 C 12.726562 -11.421875 12.265625 -11.21875 11.671875 -11.21875 C 11.335938 -11.21875 11.023438 -11.28125 10.734375 -11.40625 C 10.453125 -11.539062 10.222656 -11.726562 10.046875 -11.96875 C 9.878906 -12.21875 9.796875 -12.492188 9.796875 -12.796875 C 9.796875 -13.359375 9.941406 -13.785156 10.234375 -14.078125 C 10.523438 -14.378906 10.890625 -14.53125 11.328125 -14.53125 C 10.453125 -15.226562 9.195312 -15.578125 7.5625 -15.578125 C 6.84375 -15.578125 6.179688 -15.46875 5.578125 -15.25 C 4.984375 -15.039062 4.492188 -14.734375 4.109375 -14.328125 C 3.722656 -13.910156 3.53125 -13.421875 3.53125 -12.859375 C 3.53125 -12.578125 3.554688 -12.335938 3.609375 -12.140625 C 3.660156 -11.953125 3.765625 -11.753906 3.921875 -11.546875 C 4.078125 -11.316406 4.289062 -11.109375 4.5625 -10.921875 C 4.84375 -10.742188 5.226562 -10.566406 5.71875 -10.390625 C 6.1875 -10.203125 6.765625 -10.035156 7.453125 -9.890625 C 9.585938 -9.410156 11.1875 -8.835938 12.25 -8.171875 C 12.738281 -7.859375 13.132812 -7.5 13.4375 -7.09375 C 13.738281 -6.6875 13.957031 -6.269531 14.09375 -5.84375 C 14.195312 -5.4375 14.25 -4.960938 14.25 -4.421875 C 14.25 -3.441406 13.988281 -2.597656 13.46875 -1.890625 C 12.945312 -1.179688 12.1875 -0.640625 11.1875 -0.265625 C 10.1875 0.109375 8.972656 0.296875 7.546875 0.296875 Z M 7.546875 0.296875 "/></g></g></g><g fill="#ff00ff" fill-opacity="1"><g transform="translate(21.503104, 186.608575)"><g><path d="M 8.875 0.296875 C 7.851562 0.296875 6.90625 0.132812 6.03125 -0.1875 C 5.15625 -0.507812 4.398438 -0.957031 3.765625 -1.53125 C 3.160156 -2.082031 2.640625 -2.734375 2.203125 -3.484375 C 1.765625 -4.234375 1.445312 -5.023438 1.25 -5.859375 C 1.039062 -6.679688 0.9375 -7.53125 0.9375 -8.40625 C 0.9375 -10.21875 1.359375 -11.859375 2.203125 -13.328125 C 2.640625 -14.097656 3.171875 -14.757812 3.796875 -15.3125 C 4.421875 -15.875 5.15625 -16.316406 6 -16.640625 C 6.894531 -16.972656 7.851562 -17.140625 8.875 -17.140625 C 9.882812 -17.140625 10.828125 -16.972656 11.703125 -16.640625 C 12.585938 -16.316406 13.34375 -15.867188 13.96875 -15.296875 C 14.570312 -14.734375 15.085938 -14.078125 15.515625 -13.328125 C 15.953125 -12.585938 16.273438 -11.800781 16.484375 -10.96875 C 16.679688 -10.132812 16.78125 -9.28125 16.78125 -8.40625 C 16.78125 -6.59375 16.363281 -4.953125 15.53125 -3.484375 C 15.082031 -2.710938 14.546875 -2.050781 13.921875 -1.5 C 13.304688 -0.957031 12.578125 -0.523438 11.734375 -0.203125 C 10.859375 0.128906 9.90625 0.296875 8.875 0.296875 Z M 8.875 -1.265625 C 9.644531 -1.265625 10.359375 -1.460938 11.015625 -1.859375 C 11.679688 -2.253906 12.226562 -2.796875 12.65625 -3.484375 C 13.070312 -4.160156 13.390625 -4.921875 13.609375 -5.765625 C 13.828125 -6.609375 13.9375 -7.484375 13.9375 -8.390625 C 13.9375 -9.117188 13.863281 -9.828125 13.71875 -10.515625 C 13.582031 -11.210938 13.375 -11.859375 13.09375 -12.453125 C 12.476562 -13.753906 11.664062 -14.660156 10.65625 -15.171875 C 10.113281 -15.441406 9.519531 -15.578125 8.875 -15.578125 C 8.09375 -15.578125 7.375 -15.375 6.71875 -14.96875 C 6.0625 -14.570312 5.519531 -14.03125 5.09375 -13.34375 C 4.675781 -12.664062 4.351562 -11.90625 4.125 -11.0625 C 3.90625 -10.21875 3.796875 -9.34375 3.796875 -8.4375 C 3.796875 -6.894531 4.078125 -5.53125 4.640625 -4.34375 C 4.941406 -3.707031 5.289062 -3.164062 5.6875 -2.71875 C 6.082031 -2.269531 6.546875 -1.914062 7.078125 -1.65625 C 7.628906 -1.394531 8.226562 -1.265625 8.875 -1.265625 Z M 8.875 -1.265625 "/></g></g></g><g fill="#ff00ff" fill-opacity="1"><g transform="translate(39.230981, 186.608575)"><g><path d="M 0.375 0 L 0.375 -1.59375 L 3.078125 -1.59375 L 3.078125 -15.1875 L 0.375 -15.1875 L 0.375 -16.78125 L 8.265625 -16.78125 L 8.265625 -15.1875 L 5.71875 -15.1875 L 5.71875 -9.5 L 12.75 -9.5 L 12.75 -15.1875 L 10.15625 -15.1875 L 10.15625 -16.78125 L 18.09375 -16.78125 L 18.09375 -15.1875 L 15.375 -15.1875 L 15.375 -1.59375 L 18.09375 -1.59375 L 18.09375 0 L 10.15625 0 L 10.15625 -1.59375 L 12.75 -1.59375 L 12.75 -8.09375 L 5.71875 -8.09375 L 5.71875 -1.59375 L 8.265625 -1.59375 L 8.265625 0 Z M 0.375 0 "/></g></g></g><g fill="#ff00ff" fill-opacity="1"><g transform="translate(57.684038, 186.608575)"><g><path d="M 0.09375 0 L 0.09375 -1.59375 L 2.09375 -1.59375 L 7.96875 -16.78125 L 10.625 -16.78125 L 16.59375 -1.59375 L 18.453125 -1.59375 L 18.453125 0 L 11.25 0 L 11.25 -1.59375 L 13.734375 -1.59375 L 12.1875 -5.625 L 5.734375 -5.625 L 4.265625 -1.59375 L 7.078125 -1.59375 L 7.078125 0 Z M 6.25 -7.03125 L 11.625 -7.03125 L 8.875 -14.59375 Z M 6.25 -7.03125 "/></g></g></g><g fill="#ff00ff" fill-opacity="1"><g transform="translate(76.226347, 186.608575)"><g><path d="M 0.328125 0 L 0.328125 -1.59375 L 3.0625 -1.59375 L 3.0625 -15.1875 L 0.328125 -15.1875 L 0.328125 -16.78125 L 8.25 -16.78125 L 8.25 -15.1875 L 5.671875 -15.1875 L 5.671875 -1.59375 L 8.25 -1.59375 L 8.25 0 Z M 0.328125 0 "/></g></g></g><g fill="#ff00ff" fill-opacity="1"><g transform="translate(84.805792, 186.608575)"><g><path d="M 0.375 0 L 0.375 -1.59375 L 3.078125 -1.59375 L 3.078125 -15.1875 L 0.375 -15.1875 L 0.375 -16.78125 L 8.265625 -16.78125 L 8.265625 -15.1875 L 5.71875 -15.1875 L 5.71875 -1.59375 L 12.015625 -1.59375 L 12.015625 -6.96875 L 14.09375 -6.96875 L 14.09375 0 Z M 0.375 0 "/></g></g></g><g fill="#ff00ff" fill-opacity="1"><g transform="translate(99.197837, 186.608575)"><g/></g></g><g fill="#ff00ff" fill-opacity="1"><g transform="translate(104.553017, 186.608575)"><g><path d="M 7.546875 0.296875 C 6.660156 0.296875 5.816406 0.210938 5.015625 0.046875 C 4.222656 -0.109375 3.492188 -0.347656 2.828125 -0.671875 C 2.148438 -0.992188 1.617188 -1.421875 1.234375 -1.953125 C 0.847656 -2.492188 0.65625 -3.09375 0.65625 -3.75 C 0.65625 -4.144531 0.75 -4.503906 0.9375 -4.828125 C 1.125 -5.160156 1.367188 -5.414062 1.671875 -5.59375 C 1.984375 -5.769531 2.316406 -5.859375 2.671875 -5.859375 C 2.992188 -5.859375 3.289062 -5.769531 3.5625 -5.59375 C 3.832031 -5.425781 4.046875 -5.195312 4.203125 -4.90625 C 4.367188 -4.625 4.453125 -4.328125 4.453125 -4.015625 C 4.453125 -3.535156 4.3125 -3.160156 4.03125 -2.890625 C 3.757812 -2.628906 3.375 -2.460938 2.875 -2.390625 C 3.414062 -2.015625 4.019531 -1.734375 4.6875 -1.546875 C 5.351562 -1.359375 6.179688 -1.265625 7.171875 -1.265625 C 8.835938 -1.265625 10.046875 -1.664062 10.796875 -2.46875 C 11.203125 -2.90625 11.40625 -3.425781 11.40625 -4.03125 C 11.40625 -4.726562 11.171875 -5.296875 10.703125 -5.734375 C 10.492188 -5.921875 10.195312 -6.101562 9.8125 -6.28125 C 9.425781 -6.46875 9 -6.632812 8.53125 -6.78125 C 8 -6.9375 7.4375 -7.085938 6.84375 -7.234375 C 5.351562 -7.609375 4.160156 -8.039062 3.265625 -8.53125 C 2.367188 -9.03125 1.742188 -9.585938 1.390625 -10.203125 C 1.046875 -10.816406 0.875 -11.550781 0.875 -12.40625 C 0.875 -13.300781 1.144531 -14.109375 1.6875 -14.828125 C 2.226562 -15.554688 2.984375 -16.125 3.953125 -16.53125 C 4.929688 -16.9375 6.039062 -17.140625 7.28125 -17.140625 C 8.363281 -17.140625 9.4375 -16.96875 10.5 -16.625 C 11.113281 -16.425781 11.640625 -16.1875 12.078125 -15.90625 C 12.515625 -15.632812 12.875 -15.289062 13.15625 -14.875 C 13.4375 -14.4375 13.578125 -13.960938 13.578125 -13.453125 C 13.578125 -12.785156 13.40625 -12.242188 13.0625 -11.828125 C 12.726562 -11.421875 12.265625 -11.21875 11.671875 -11.21875 C 11.335938 -11.21875 11.023438 -11.28125 10.734375 -11.40625 C 10.453125 -11.539062 10.222656 -11.726562 10.046875 -11.96875 C 9.878906 -12.21875 9.796875 -12.492188 9.796875 -12.796875 C 9.796875 -13.359375 9.941406 -13.785156 10.234375 -14.078125 C 10.523438 -14.378906 10.890625 -14.53125 11.328125 -14.53125 C 10.453125 -15.226562 9.195312 -15.578125 7.5625 -15.578125 C 6.84375 -15.578125 6.179688 -15.46875 5.578125 -15.25 C 4.984375 -15.039062 4.492188 -14.734375 4.109375 -14.328125 C 3.722656 -13.910156 3.53125 -13.421875 3.53125 -12.859375 C 3.53125 -12.578125 3.554688 -12.335938 3.609375 -12.140625 C 3.660156 -11.953125 3.765625 -11.753906 3.921875 -11.546875 C 4.078125 -11.316406 4.289062 -11.109375 4.5625 -10.921875 C 4.84375 -10.742188 5.226562 -10.566406 5.71875 -10.390625 C 6.1875 -10.203125 6.765625 -10.035156 7.453125 -9.890625 C 9.585938 -9.410156 11.1875 -8.835938 12.25 -8.171875 C 12.738281 -7.859375 13.132812 -7.5 13.4375 -7.09375 C 13.738281 -6.6875 13.957031 -6.269531 14.09375 -5.84375 C 14.195312 -5.4375 14.25 -4.960938 14.25 -4.421875 C 14.25 -3.441406 13.988281 -2.597656 13.46875 -1.890625 C 12.945312 -1.179688 12.1875 -0.640625 11.1875 -0.265625 C 10.1875 0.109375 8.972656 0.296875 7.546875 0.296875 Z M 7.546875 0.296875 "/></g></g></g><g fill="#ff00ff" fill-opacity="1"><g transform="translate(119.469424, 186.608575)"><g><path d="M 0.328125 0 L 0.328125 -1.59375 L 3.0625 -1.59375 L 3.0625 -15.1875 L 0.328125 -15.1875 L 0.328125 -16.78125 L 8.25 -16.78125 L 8.25 -15.1875 L 5.671875 -15.1875 L 5.671875 -1.59375 L 8.25 -1.59375 L 8.25 0 Z M 0.328125 0 "/></g></g></g><g fill="#ff00ff" fill-opacity="1"><g transform="translate(128.048868, 186.608575)"><g><path d="M 14.296875 0.375 C 13.847656 0.375 13.4375 0.289062 13.0625 0.125 C 12.695312 -0.03125 12.390625 -0.25 12.140625 -0.53125 C 11.898438 -0.789062 11.679688 -1.144531 11.484375 -1.59375 C 11.296875 -2.050781 11.132812 -2.550781 11 -3.09375 C 10.851562 -3.695312 10.726562 -4.300781 10.625 -4.90625 C 10.550781 -5.332031 10.429688 -5.722656 10.265625 -6.078125 C 10.109375 -6.429688 9.9375 -6.707031 9.75 -6.90625 C 9.570312 -7.082031 9.378906 -7.234375 9.171875 -7.359375 C 8.972656 -7.484375 8.804688 -7.566406 8.671875 -7.609375 C 8.554688 -7.640625 8.445312 -7.65625 8.34375 -7.65625 L 5.71875 -7.65625 L 5.71875 -1.59375 L 8.25 -1.59375 L 8.25 0 L 0.375 0 L 0.375 -1.59375 L 3.078125 -1.59375 L 3.078125 -15.1875 L 0.375 -15.1875 L 0.375 -16.78125 L 7.3125 -16.78125 C 7.800781 -16.78125 8.207031 -16.773438 8.53125 -16.765625 C 8.863281 -16.753906 9.285156 -16.722656 9.796875 -16.671875 C 10.410156 -16.617188 10.914062 -16.539062 11.3125 -16.4375 C 11.707031 -16.332031 12.15625 -16.164062 12.65625 -15.9375 C 13.113281 -15.71875 13.484375 -15.457031 13.765625 -15.15625 C 14.046875 -14.863281 14.285156 -14.472656 14.484375 -13.984375 C 14.660156 -13.515625 14.75 -12.972656 14.75 -12.359375 C 14.75 -11.054688 14.347656 -10.085938 13.546875 -9.453125 C 13.148438 -9.140625 12.71875 -8.890625 12.25 -8.703125 C 11.789062 -8.515625 11.238281 -8.351562 10.59375 -8.21875 C 11.03125 -8.132812 11.390625 -8.015625 11.671875 -7.859375 C 11.960938 -7.703125 12.210938 -7.492188 12.421875 -7.234375 C 12.597656 -6.992188 12.742188 -6.734375 12.859375 -6.453125 C 12.984375 -6.179688 13.109375 -5.816406 13.234375 -5.359375 C 13.328125 -4.992188 13.460938 -4.394531 13.640625 -3.5625 C 13.679688 -3.300781 13.742188 -3.035156 13.828125 -2.765625 C 13.921875 -2.503906 14.015625 -2.300781 14.109375 -2.15625 C 14.203125 -1.988281 14.320312 -1.851562 14.46875 -1.75 C 14.625 -1.644531 14.796875 -1.59375 14.984375 -1.59375 C 15.742188 -1.59375 16.125 -2.296875 16.125 -3.703125 L 16.125 -5.25 L 17.640625 -5.25 L 17.640625 -3.609375 C 17.640625 -0.953125 16.523438 0.375 14.296875 0.375 Z M 7.109375 -9.328125 C 8.304688 -9.328125 9.273438 -9.410156 10.015625 -9.578125 C 10.753906 -9.753906 11.332031 -10.050781 11.75 -10.46875 C 12.1875 -10.894531 12.40625 -11.457031 12.40625 -12.15625 C 12.40625 -12.757812 12.296875 -13.257812 12.078125 -13.65625 C 11.859375 -14.050781 11.515625 -14.363281 11.046875 -14.59375 C 10.585938 -14.800781 10.046875 -14.953125 9.421875 -15.046875 C 8.796875 -15.140625 7.992188 -15.1875 7.015625 -15.1875 L 5.71875 -15.1875 L 5.71875 -9.328125 Z M 7.109375 -9.328125 "/></g></g></g><g fill="#ff00ff" fill-opacity="1"><g transform="translate(145.709805, 186.608575)"><g><path d="M 0.09375 0 L 0.09375 -1.59375 L 2.09375 -1.59375 L 7.96875 -16.78125 L 10.625 -16.78125 L 16.59375 -1.59375 L 18.453125 -1.59375 L 18.453125 0 L 11.25 0 L 11.25 -1.59375 L 13.734375 -1.59375 L 12.1875 -5.625 L 5.734375 -5.625 L 4.265625 -1.59375 L 7.078125 -1.59375 L 7.078125 0 Z M 6.25 -7.03125 L 11.625 -7.03125 L 8.875 -14.59375 Z M 6.25 -7.03125 "/></g></g></g><g fill="#ff00ff" fill-opacity="1"><g transform="translate(164.252114, 186.608575)"><g><path d="M 5.03125 2.234375 C 4.132812 2.234375 3.332031 2.070312 2.625 1.75 C 1.925781 1.425781 1.378906 0.988281 0.984375 0.4375 C 0.585938 -0.101562 0.390625 -0.707031 0.390625 -1.375 C 0.390625 -1.769531 0.472656 -2.117188 0.640625 -2.421875 C 0.804688 -2.722656 1.035156 -2.953125 1.328125 -3.109375 C 1.617188 -3.273438 1.9375 -3.359375 2.28125 -3.359375 C 2.613281 -3.359375 2.921875 -3.28125 3.203125 -3.125 C 3.484375 -2.976562 3.707031 -2.769531 3.875 -2.5 C 4.050781 -2.226562 4.140625 -1.921875 4.140625 -1.578125 C 4.140625 -1.203125 4.015625 -0.84375 3.765625 -0.5 C 3.523438 -0.164062 3.238281 0.0976562 2.90625 0.296875 C 3.03125 0.492188 3.300781 0.65625 3.71875 0.78125 C 4.132812 0.914062 4.53125 0.984375 4.90625 0.984375 C 5.34375 0.984375 5.722656 0.910156 6.046875 0.765625 C 6.367188 0.628906 6.628906 0.441406 6.828125 0.203125 C 7.003906 -0.0234375 7.144531 -0.328125 7.25 -0.703125 C 7.363281 -1.085938 7.441406 -1.507812 7.484375 -1.96875 C 7.523438 -2.425781 7.546875 -2.925781 7.546875 -3.46875 L 7.546875 -15.1875 L 4.40625 -15.1875 L 4.40625 -16.78125 L 12.8125 -16.78125 L 12.8125 -15.1875 L 10.15625 -15.1875 L 10.15625 -3.765625 C 10.15625 -3.035156 10.109375 -2.394531 10.015625 -1.84375 C 9.929688 -1.289062 9.78125 -0.757812 9.5625 -0.25 C 9.332031 0.289062 9.023438 0.734375 8.640625 1.078125 C 8.265625 1.429688 7.773438 1.710938 7.171875 1.921875 C 6.546875 2.128906 5.832031 2.234375 5.03125 2.234375 Z M 5.03125 2.234375 "/></g></g></g><g fill="#00ffff" fill-opacity="1"><g transform="translate(5.729582, 186.608575)"><g><path d="M 7.546875 0.296875 C 6.660156 0.296875 5.816406 0.210938 5.015625 0.046875 C 4.222656 -0.109375 3.492188 -0.347656 2.828125 -0.671875 C 2.148438 -0.992188 1.617188 -1.421875 1.234375 -1.953125 C 0.847656 -2.492188 0.65625 -3.09375 0.65625 -3.75 C 0.65625 -4.144531 0.75 -4.503906 0.9375 -4.828125 C 1.125 -5.160156 1.367188 -5.414062 1.671875 -5.59375 C 1.984375 -5.769531 2.316406 -5.859375 2.671875 -5.859375 C 2.992188 -5.859375 3.289062 -5.769531 3.5625 -5.59375 C 3.832031 -5.425781 4.046875 -5.195312 4.203125 -4.90625 C 4.367188 -4.625 4.453125 -4.328125 4.453125 -4.015625 C 4.453125 -3.535156 4.3125 -3.160156 4.03125 -2.890625 C 3.757812 -2.628906 3.375 -2.460938 2.875 -2.390625 C 3.414062 -2.015625 4.019531 -1.734375 4.6875 -1.546875 C 5.351562 -1.359375 6.179688 -1.265625 7.171875 -1.265625 C 8.835938 -1.265625 10.046875 -1.664062 10.796875 -2.46875 C 11.203125 -2.90625 11.40625 -3.425781 11.40625 -4.03125 C 11.40625 -4.726562 11.171875 -5.296875 10.703125 -5.734375 C 10.492188 -5.921875 10.195312 -6.101562 9.8125 -6.28125 C 9.425781 -6.46875 9 -6.632812 8.53125 -6.78125 C 8 -6.9375 7.4375 -7.085938 6.84375 -7.234375 C 5.351562 -7.609375 4.160156 -8.039062 3.265625 -8.53125 C 2.367188 -9.03125 1.742188 -9.585938 1.390625 -10.203125 C 1.046875 -10.816406 0.875 -11.550781 0.875 -12.40625 C 0.875 -13.300781 1.144531 -14.109375 1.6875 -14.828125 C 2.226562 -15.554688 2.984375 -16.125 3.953125 -16.53125 C 4.929688 -16.9375 6.039062 -17.140625 7.28125 -17.140625 C 8.363281 -17.140625 9.4375 -16.96875 10.5 -16.625 C 11.113281 -16.425781 11.640625 -16.1875 12.078125 -15.90625 C 12.515625 -15.632812 12.875 -15.289062 13.15625 -14.875 C 13.4375 -14.4375 13.578125 -13.960938 13.578125 -13.453125 C 13.578125 -12.785156 13.40625 -12.242188 13.0625 -11.828125 C 12.726562 -11.421875 12.265625 -11.21875 11.671875 -11.21875 C 11.335938 -11.21875 11.023438 -11.28125 10.734375 -11.40625 C 10.453125 -11.539062 10.222656 -11.726562 10.046875 -11.96875 C 9.878906 -12.21875 9.796875 -12.492188 9.796875 -12.796875 C 9.796875 -13.359375 9.941406 -13.785156 10.234375 -14.078125 C 10.523438 -14.378906 10.890625 -14.53125 11.328125 -14.53125 C 10.453125 -15.226562 9.195312 -15.578125 7.5625 -15.578125 C 6.84375 -15.578125 6.179688 -15.46875 5.578125 -15.25 C 4.984375 -15.039062 4.492188 -14.734375 4.109375 -14.328125 C 3.722656 -13.910156 3.53125 -13.421875 3.53125 -12.859375 C 3.53125 -12.578125 3.554688 -12.335938 3.609375 -12.140625 C 3.660156 -11.953125 3.765625 -11.753906 3.921875 -11.546875 C 4.078125 -11.316406 4.289062 -11.109375 4.5625 -10.921875 C 4.84375 -10.742188 5.226562 -10.566406 5.71875 -10.390625 C 6.1875 -10.203125 6.765625 -10.035156 7.453125 -9.890625 C 9.585938 -9.410156 11.1875 -8.835938 12.25 -8.171875 C 12.738281 -7.859375 13.132812 -7.5 13.4375 -7.09375 C 13.738281 -6.6875 13.957031 -6.269531 14.09375 -5.84375 C 14.195312 -5.4375 14.25 -4.960938 14.25 -4.421875 C 14.25 -3.441406 13.988281 -2.597656 13.46875 -1.890625 C 12.945312 -1.179688 12.1875 -0.640625 11.1875 -0.265625 C 10.1875 0.109375 8.972656 0.296875 7.546875 0.296875 Z M 7.546875 0.296875 "/></g></g></g><g fill="#00ffff" fill-opacity="1"><g transform="translate(20.64599, 186.608575)"><g><path d="M 8.875 0.296875 C 7.851562 0.296875 6.90625 0.132812 6.03125 -0.1875 C 5.15625 -0.507812 4.398438 -0.957031 3.765625 -1.53125 C 3.160156 -2.082031 2.640625 -2.734375 2.203125 -3.484375 C 1.765625 -4.234375 1.445312 -5.023438 1.25 -5.859375 C 1.039062 -6.679688 0.9375 -7.53125 0.9375 -8.40625 C 0.9375 -10.21875 1.359375 -11.859375 2.203125 -13.328125 C 2.640625 -14.097656 3.171875 -14.757812 3.796875 -15.3125 C 4.421875 -15.875 5.15625 -16.316406 6 -16.640625 C 6.894531 -16.972656 7.851562 -17.140625 8.875 -17.140625 C 9.882812 -17.140625 10.828125 -16.972656 11.703125 -16.640625 C 12.585938 -16.316406 13.34375 -15.867188 13.96875 -15.296875 C 14.570312 -14.734375 15.085938 -14.078125 15.515625 -13.328125 C 15.953125 -12.585938 16.273438 -11.800781 16.484375 -10.96875 C 16.679688 -10.132812 16.78125 -9.28125 16.78125 -8.40625 C 16.78125 -6.59375 16.363281 -4.953125 15.53125 -3.484375 C 15.082031 -2.710938 14.546875 -2.050781 13.921875 -1.5 C 13.304688 -0.957031 12.578125 -0.523438 11.734375 -0.203125 C 10.859375 0.128906 9.90625 0.296875 8.875 0.296875 Z M 8.875 -1.265625 C 9.644531 -1.265625 10.359375 -1.460938 11.015625 -1.859375 C 11.679688 -2.253906 12.226562 -2.796875 12.65625 -3.484375 C 13.070312 -4.160156 13.390625 -4.921875 13.609375 -5.765625 C 13.828125 -6.609375 13.9375 -7.484375 13.9375 -8.390625 C 13.9375 -9.117188 13.863281 -9.828125 13.71875 -10.515625 C 13.582031 -11.210938 13.375 -11.859375 13.09375 -12.453125 C 12.476562 -13.753906 11.664062 -14.660156 10.65625 -15.171875 C 10.113281 -15.441406 9.519531 -15.578125 8.875 -15.578125 C 8.09375 -15.578125 7.375 -15.375 6.71875 -14.96875 C 6.0625 -14.570312 5.519531 -14.03125 5.09375 -13.34375 C 4.675781 -12.664062 4.351562 -11.90625 4.125 -11.0625 C 3.90625 -10.21875 3.796875 -9.34375 3.796875 -8.4375 C 3.796875 -6.894531 4.078125 -5.53125 4.640625 -4.34375 C 4.941406 -3.707031 5.289062 -3.164062 5.6875 -2.71875 C 6.082031 -2.269531 6.546875 -1.914062 7.078125 -1.65625 C 7.628906 -1.394531 8.226562 -1.265625 8.875 -1.265625 Z M 8.875 -1.265625 "/></g></g></g><g fill="#00ffff" fill-opacity="1"><g transform="translate(38.373866, 186.608575)"><g><path d="M 0.375 0 L 0.375 -1.59375 L 3.078125 -1.59375 L 3.078125 -15.1875 L 0.375 -15.1875 L 0.375 -16.78125 L 8.265625 -16.78125 L 8.265625 -15.1875 L 5.71875 -15.1875 L 5.71875 -9.5 L 12.75 -9.5 L 12.75 -15.1875 L 10.15625 -15.1875 L 10.15625 -16.78125 L 18.09375 -16.78125 L 18.09375 -15.1875 L 15.375 -15.1875 L 15.375 -1.59375 L 18.09375 -1.59375 L 18.09375 0 L 10.15625 0 L 10.15625 -1.59375 L 12.75 -1.59375 L 12.75 -8.09375 L 5.71875 -8.09375 L 5.71875 -1.59375 L 8.265625 -1.59375 L 8.265625 0 Z M 0.375 0 "/></g></g></g><g fill="#00ffff" fill-opacity="1"><g transform="translate(56.826923, 186.608575)"><g><path d="M 0.09375 0 L 0.09375 -1.59375 L 2.09375 -1.59375 L 7.96875 -16.78125 L 10.625 -16.78125 L 16.59375 -1.59375 L 18.453125 -1.59375 L 18.453125 0 L 11.25 0 L 11.25 -1.59375 L 13.734375 -1.59375 L 12.1875 -5.625 L 5.734375 -5.625 L 4.265625 -1.59375 L 7.078125 -1.59375 L 7.078125 0 Z M 6.25 -7.03125 L 11.625 -7.03125 L 8.875 -14.59375 Z M 6.25 -7.03125 "/></g></g></g><g fill="#00ffff" fill-opacity="1"><g transform="translate(75.369233, 186.608575)"><g><path d="M 0.328125 0 L 0.328125 -1.59375 L 3.0625 -1.59375 L 3.0625 -15.1875 L 0.328125 -15.1875 L 0.328125 -16.78125 L 8.25 -16.78125 L 8.25 -15.1875 L 5.671875 -15.1875 L 5.671875 -1.59375 L 8.25 -1.59375 L 8.25 0 Z M 0.328125 0 "/></g></g></g><g fill="#00ffff" fill-opacity="1"><g transform="translate(83.948677, 186.608575)"><g><path d="M 0.375 0 L 0.375 -1.59375 L 3.078125 -1.59375 L 3.078125 -15.1875 L 0.375 -15.1875 L 0.375 -16.78125 L 8.265625 -16.78125 L 8.265625 -15.1875 L 5.71875 -15.1875 L 5.71875 -1.59375 L 12.015625 -1.59375 L 12.015625 -6.96875 L 14.09375 -6.96875 L 14.09375 0 Z M 0.375 0 "/></g></g></g><g fill="#00ffff" fill-opacity="1"><g transform="translate(98.340723, 186.608575)"><g/></g></g><g fill="#00ffff" fill-opacity="1"><g transform="translate(103.695902, 186.608575)"><g><path d="M 7.546875 0.296875 C 6.660156 0.296875 5.816406 0.210938 5.015625 0.046875 C 4.222656 -0.109375 3.492188 -0.347656 2.828125 -0.671875 C 2.148438 -0.992188 1.617188 -1.421875 1.234375 -1.953125 C 0.847656 -2.492188 0.65625 -3.09375 0.65625 -3.75 C 0.65625 -4.144531 0.75 -4.503906 0.9375 -4.828125 C 1.125 -5.160156 1.367188 -5.414062 1.671875 -5.59375 C 1.984375 -5.769531 2.316406 -5.859375 2.671875 -5.859375 C 2.992188 -5.859375 3.289062 -5.769531 3.5625 -5.59375 C 3.832031 -5.425781 4.046875 -5.195312 4.203125 -4.90625 C 4.367188 -4.625 4.453125 -4.328125 4.453125 -4.015625 C 4.453125 -3.535156 4.3125 -3.160156 4.03125 -2.890625 C 3.757812 -2.628906 3.375 -2.460938 2.875 -2.390625 C 3.414062 -2.015625 4.019531 -1.734375 4.6875 -1.546875 C 5.351562 -1.359375 6.179688 -1.265625 7.171875 -1.265625 C 8.835938 -1.265625 10.046875 -1.664062 10.796875 -2.46875 C 11.203125 -2.90625 11.40625 -3.425781 11.40625 -4.03125 C 11.40625 -4.726562 11.171875 -5.296875 10.703125 -5.734375 C 10.492188 -5.921875 10.195312 -6.101562 9.8125 -6.28125 C 9.425781 -6.46875 9 -6.632812 8.53125 -6.78125 C 8 -6.9375 7.4375 -7.085938 6.84375 -7.234375 C 5.351562 -7.609375 4.160156 -8.039062 3.265625 -8.53125 C 2.367188 -9.03125 1.742188 -9.585938 1.390625 -10.203125 C 1.046875 -10.816406 0.875 -11.550781 0.875 -12.40625 C 0.875 -13.300781 1.144531 -14.109375 1.6875 -14.828125 C 2.226562 -15.554688 2.984375 -16.125 3.953125 -16.53125 C 4.929688 -16.9375 6.039062 -17.140625 7.28125 -17.140625 C 8.363281 -17.140625 9.4375 -16.96875 10.5 -16.625 C 11.113281 -16.425781 11.640625 -16.1875 12.078125 -15.90625 C 12.515625 -15.632812 12.875 -15.289062 13.15625 -14.875 C 13.4375 -14.4375 13.578125 -13.960938 13.578125 -13.453125 C 13.578125 -12.785156 13.40625 -12.242188 13.0625 -11.828125 C 12.726562 -11.421875 12.265625 -11.21875 11.671875 -11.21875 C 11.335938 -11.21875 11.023438 -11.28125 10.734375 -11.40625 C 10.453125 -11.539062 10.222656 -11.726562 10.046875 -11.96875 C 9.878906 -12.21875 9.796875 -12.492188 9.796875 -12.796875 C 9.796875 -13.359375 9.941406 -13.785156 10.234375 -14.078125 C 10.523438 -14.378906 10.890625 -14.53125 11.328125 -14.53125 C 10.453125 -15.226562 9.195312 -15.578125 7.5625 -15.578125 C 6.84375 -15.578125 6.179688 -15.46875 5.578125 -15.25 C 4.984375 -15.039062 4.492188 -14.734375 4.109375 -14.328125 C 3.722656 -13.910156 3.53125 -13.421875 3.53125 -12.859375 C 3.53125 -12.578125 3.554688 -12.335938 3.609375 -12.140625 C 3.660156 -11.953125 3.765625 -11.753906 3.921875 -11.546875 C 4.078125 -11.316406 4.289062 -11.109375 4.5625 -10.921875 C 4.84375 -10.742188 5.226562 -10.566406 5.71875 -10.390625 C 6.1875 -10.203125 6.765625 -10.035156 7.453125 -9.890625 C 9.585938 -9.410156 11.1875 -8.835938 12.25 -8.171875 C 12.738281 -7.859375 13.132812 -7.5 13.4375 -7.09375 C 13.738281 -6.6875 13.957031 -6.269531 14.09375 -5.84375 C 14.195312 -5.4375 14.25 -4.960938 14.25 -4.421875 C 14.25 -3.441406 13.988281 -2.597656 13.46875 -1.890625 C 12.945312 -1.179688 12.1875 -0.640625 11.1875 -0.265625 C 10.1875 0.109375 8.972656 0.296875 7.546875 0.296875 Z M 7.546875 0.296875 "/></g></g></g><g fill="#00ffff" fill-opacity="1"><g transform="translate(118.612309, 186.608575)"><g><path d="M 0.328125 0 L 0.328125 -1.59375 L 3.0625 -1.59375 L 3.0625 -15.1875 L 0.328125 -15.1875 L 0.328125 -16.78125 L 8.25 -16.78125 L 8.25 -15.1875 L 5.671875 -15.1875 L 5.671875 -1.59375 L 8.25 -1.59375 L 8.25 0 Z M 0.328125 0 "/></g></g></g><g fill="#00ffff" fill-opacity="1"><g transform="translate(127.191754, 186.608575)"><g><path d="M 14.296875 0.375 C 13.847656 0.375 13.4375 0.289062 13.0625 0.125 C 12.695312 -0.03125 12.390625 -0.25 12.140625 -0.53125 C 11.898438 -0.789062 11.679688 -1.144531 11.484375 -1.59375 C 11.296875 -2.050781 11.132812 -2.550781 11 -3.09375 C 10.851562 -3.695312 10.726562 -4.300781 10.625 -4.90625 C 10.550781 -5.332031 10.429688 -5.722656 10.265625 -6.078125 C 10.109375 -6.429688 9.9375 -6.707031 9.75 -6.90625 C 9.570312 -7.082031 9.378906 -7.234375 9.171875 -7.359375 C 8.972656 -7.484375 8.804688 -7.566406 8.671875 -7.609375 C 8.554688 -7.640625 8.445312 -7.65625 8.34375 -7.65625 L 5.71875 -7.65625 L 5.71875 -1.59375 L 8.25 -1.59375 L 8.25 0 L 0.375 0 L 0.375 -1.59375 L 3.078125 -1.59375 L 3.078125 -15.1875 L 0.375 -15.1875 L 0.375 -16.78125 L 7.3125 -16.78125 C 7.800781 -16.78125 8.207031 -16.773438 8.53125 -16.765625 C 8.863281 -16.753906 9.285156 -16.722656 9.796875 -16.671875 C 10.410156 -16.617188 10.914062 -16.539062 11.3125 -16.4375 C 11.707031 -16.332031 12.15625 -16.164062 12.65625 -15.9375 C 13.113281 -15.71875 13.484375 -15.457031 13.765625 -15.15625 C 14.046875 -14.863281 14.285156 -14.472656 14.484375 -13.984375 C 14.660156 -13.515625 14.75 -12.972656 14.75 -12.359375 C 14.75 -11.054688 14.347656 -10.085938 13.546875 -9.453125 C 13.148438 -9.140625 12.71875 -8.890625 12.25 -8.703125 C 11.789062 -8.515625 11.238281 -8.351562 10.59375 -8.21875 C 11.03125 -8.132812 11.390625 -8.015625 11.671875 -7.859375 C 11.960938 -7.703125 12.210938 -7.492188 12.421875 -7.234375 C 12.597656 -6.992188 12.742188 -6.734375 12.859375 -6.453125 C 12.984375 -6.179688 13.109375 -5.816406 13.234375 -5.359375 C 13.328125 -4.992188 13.460938 -4.394531 13.640625 -3.5625 C 13.679688 -3.300781 13.742188 -3.035156 13.828125 -2.765625 C 13.921875 -2.503906 14.015625 -2.300781 14.109375 -2.15625 C 14.203125 -1.988281 14.320312 -1.851562 14.46875 -1.75 C 14.625 -1.644531 14.796875 -1.59375 14.984375 -1.59375 C 15.742188 -1.59375 16.125 -2.296875 16.125 -3.703125 L 16.125 -5.25 L 17.640625 -5.25 L 17.640625 -3.609375 C 17.640625 -0.953125 16.523438 0.375 14.296875 0.375 Z M 7.109375 -9.328125 C 8.304688 -9.328125 9.273438 -9.410156 10.015625 -9.578125 C 10.753906 -9.753906 11.332031 -10.050781 11.75 -10.46875 C 12.1875 -10.894531 12.40625 -11.457031 12.40625 -12.15625 C 12.40625 -12.757812 12.296875 -13.257812 12.078125 -13.65625 C 11.859375 -14.050781 11.515625 -14.363281 11.046875 -14.59375 C 10.585938 -14.800781 10.046875 -14.953125 9.421875 -15.046875 C 8.796875 -15.140625 7.992188 -15.1875 7.015625 -15.1875 L 5.71875 -15.1875 L 5.71875 -9.328125 Z M 7.109375 -9.328125 "/></g></g></g><g fill="#00ffff" fill-opacity="1"><g transform="translate(144.85269, 186.608575)"><g><path d="M 0.09375 0 L 0.09375 -1.59375 L 2.09375 -1.59375 L 7.96875 -16.78125 L 10.625 -16.78125 L 16.59375 -1.59375 L 18.453125 -1.59375 L 18.453125 0 L 11.25 0 L 11.25 -1.59375 L 13.734375 -1.59375 L 12.1875 -5.625 L 5.734375 -5.625 L 4.265625 -1.59375 L 7.078125 -1.59375 L 7.078125 0 Z M 6.25 -7.03125 L 11.625 -7.03125 L 8.875 -14.59375 Z M 6.25 -7.03125 "/></g></g></g><g fill="#00ffff" fill-opacity="1"><g transform="translate(163.395, 186.608575)"><g><path d="M 5.03125 2.234375 C 4.132812 2.234375 3.332031 2.070312 2.625 1.75 C 1.925781 1.425781 1.378906 0.988281 0.984375 0.4375 C 0.585938 -0.101562 0.390625 -0.707031 0.390625 -1.375 C 0.390625 -1.769531 0.472656 -2.117188 0.640625 -2.421875 C 0.804688 -2.722656 1.035156 -2.953125 1.328125 -3.109375 C 1.617188 -3.273438 1.9375 -3.359375 2.28125 -3.359375 C 2.613281 -3.359375 2.921875 -3.28125 3.203125 -3.125 C 3.484375 -2.976562 3.707031 -2.769531 3.875 -2.5 C 4.050781 -2.226562 4.140625 -1.921875 4.140625 -1.578125 C 4.140625 -1.203125 4.015625 -0.84375 3.765625 -0.5 C 3.523438 -0.164062 3.238281 0.0976562 2.90625 0.296875 C 3.03125 0.492188 3.300781 0.65625 3.71875 0.78125 C 4.132812 0.914062 4.53125 0.984375 4.90625 0.984375 C 5.34375 0.984375 5.722656 0.910156 6.046875 0.765625 C 6.367188 0.628906 6.628906 0.441406 6.828125 0.203125 C 7.003906 -0.0234375 7.144531 -0.328125 7.25 -0.703125 C 7.363281 -1.085938 7.441406 -1.507812 7.484375 -1.96875 C 7.523438 -2.425781 7.546875 -2.925781 7.546875 -3.46875 L 7.546875 -15.1875 L 4.40625 -15.1875 L 4.40625 -16.78125 L 12.8125 -16.78125 L 12.8125 -15.1875 L 10.15625 -15.1875 L 10.15625 -3.765625 C 10.15625 -3.035156 10.109375 -2.394531 10.015625 -1.84375 C 9.929688 -1.289062 9.78125 -0.757812 9.5625 -0.25 C 9.332031 0.289062 9.023438 0.734375 8.640625 1.078125 C 8.265625 1.429688 7.773438 1.710938 7.171875 1.921875 C 6.546875 2.128906 5.832031 2.234375 5.03125 2.234375 Z M 5.03125 2.234375 "/></g></g></g><g fill="#000000" fill-opacity="1"><g transform="translate(6.15814, 186.608575)"><g><path d="M 7.546875 0.296875 C 6.660156 0.296875 5.816406 0.210938 5.015625 0.046875 C 4.222656 -0.109375 3.492188 -0.347656 2.828125 -0.671875 C 2.148438 -0.992188 1.617188 -1.421875 1.234375 -1.953125 C 0.847656 -2.492188 0.65625 -3.09375 0.65625 -3.75 C 0.65625 -4.144531 0.75 -4.503906 0.9375 -4.828125 C 1.125 -5.160156 1.367188 -5.414062 1.671875 -5.59375 C 1.984375 -5.769531 2.316406 -5.859375 2.671875 -5.859375 C 2.992188 -5.859375 3.289062 -5.769531 3.5625 -5.59375 C 3.832031 -5.425781 4.046875 -5.195312 4.203125 -4.90625 C 4.367188 -4.625 4.453125 -4.328125 4.453125 -4.015625 C 4.453125 -3.535156 4.3125 -3.160156 4.03125 -2.890625 C 3.757812 -2.628906 3.375 -2.460938 2.875 -2.390625 C 3.414062 -2.015625 4.019531 -1.734375 4.6875 -1.546875 C 5.351562 -1.359375 6.179688 -1.265625 7.171875 -1.265625 C 8.835938 -1.265625 10.046875 -1.664062 10.796875 -2.46875 C 11.203125 -2.90625 11.40625 -3.425781 11.40625 -4.03125 C 11.40625 -4.726562 11.171875 -5.296875 10.703125 -5.734375 C 10.492188 -5.921875 10.195312 -6.101562 9.8125 -6.28125 C 9.425781 -6.46875 9 -6.632812 8.53125 -6.78125 C 8 -6.9375 7.4375 -7.085938 6.84375 -7.234375 C 5.351562 -7.609375 4.160156 -8.039062 3.265625 -8.53125 C 2.367188 -9.03125 1.742188 -9.585938 1.390625 -10.203125 C 1.046875 -10.816406 0.875 -11.550781 0.875 -12.40625 C 0.875 -13.300781 1.144531 -14.109375 1.6875 -14.828125 C 2.226562 -15.554688 2.984375 -16.125 3.953125 -16.53125 C 4.929688 -16.9375 6.039062 -17.140625 7.28125 -17.140625 C 8.363281 -17.140625 9.4375 -16.96875 10.5 -16.625 C 11.113281 -16.425781 11.640625 -16.1875 12.078125 -15.90625 C 12.515625 -15.632812 12.875 -15.289062 13.15625 -14.875 C 13.4375 -14.4375 13.578125 -13.960938 13.578125 -13.453125 C 13.578125 -12.785156 13.40625 -12.242188 13.0625 -11.828125 C 12.726562 -11.421875 12.265625 -11.21875 11.671875 -11.21875 C 11.335938 -11.21875 11.023438 -11.28125 10.734375 -11.40625 C 10.453125 -11.539062 10.222656 -11.726562 10.046875 -11.96875 C 9.878906 -12.21875 9.796875 -12.492188 9.796875 -12.796875 C 9.796875 -13.359375 9.941406 -13.785156 10.234375 -14.078125 C 10.523438 -14.378906 10.890625 -14.53125 11.328125 -14.53125 C 10.453125 -15.226562 9.195312 -15.578125 7.5625 -15.578125 C 6.84375 -15.578125 6.179688 -15.46875 5.578125 -15.25 C 4.984375 -15.039062 4.492188 -14.734375 4.109375 -14.328125 C 3.722656 -13.910156 3.53125 -13.421875 3.53125 -12.859375 C 3.53125 -12.578125 3.554688 -12.335938 3.609375 -12.140625 C 3.660156 -11.953125 3.765625 -11.753906 3.921875 -11.546875 C 4.078125 -11.316406 4.289062 -11.109375 4.5625 -10.921875 C 4.84375 -10.742188 5.226562 -10.566406 5.71875 -10.390625 C 6.1875 -10.203125 6.765625 -10.035156 7.453125 -9.890625 C 9.585938 -9.410156 11.1875 -8.835938 12.25 -8.171875 C 12.738281 -7.859375 13.132812 -7.5 13.4375 -7.09375 C 13.738281 -6.6875 13.957031 -6.269531 14.09375 -5.84375 C 14.195312 -5.4375 14.25 -4.960938 14.25 -4.421875 C 14.25 -3.441406 13.988281 -2.597656 13.46875 -1.890625 C 12.945312 -1.179688 12.1875 -0.640625 11.1875 -0.265625 C 10.1875 0.109375 8.972656 0.296875 7.546875 0.296875 Z M 7.546875 0.296875 "/></g></g></g><g fill="#000000" fill-opacity="1"><g transform="translate(21.074547, 186.608575)"><g><path d="M 8.875 0.296875 C 7.851562 0.296875 6.90625 0.132812 6.03125 -0.1875 C 5.15625 -0.507812 4.398438 -0.957031 3.765625 -1.53125 C 3.160156 -2.082031 2.640625 -2.734375 2.203125 -3.484375 C 1.765625 -4.234375 1.445312 -5.023438 1.25 -5.859375 C 1.039062 -6.679688 0.9375 -7.53125 0.9375 -8.40625 C 0.9375 -10.21875 1.359375 -11.859375 2.203125 -13.328125 C 2.640625 -14.097656 3.171875 -14.757812 3.796875 -15.3125 C 4.421875 -15.875 5.15625 -16.316406 6 -16.640625 C 6.894531 -16.972656 7.851562 -17.140625 8.875 -17.140625 C 9.882812 -17.140625 10.828125 -16.972656 11.703125 -16.640625 C 12.585938 -16.316406 13.34375 -15.867188 13.96875 -15.296875 C 14.570312 -14.734375 15.085938 -14.078125 15.515625 -13.328125 C 15.953125 -12.585938 16.273438 -11.800781 16.484375 -10.96875 C 16.679688 -10.132812 16.78125 -9.28125 16.78125 -8.40625 C 16.78125 -6.59375 16.363281 -4.953125 15.53125 -3.484375 C 15.082031 -2.710938 14.546875 -2.050781 13.921875 -1.5 C 13.304688 -0.957031 12.578125 -0.523438 11.734375 -0.203125 C 10.859375 0.128906 9.90625 0.296875 8.875 0.296875 Z M 8.875 -1.265625 C 9.644531 -1.265625 10.359375 -1.460938 11.015625 -1.859375 C 11.679688 -2.253906 12.226562 -2.796875 12.65625 -3.484375 C 13.070312 -4.160156 13.390625 -4.921875 13.609375 -5.765625 C 13.828125 -6.609375 13.9375 -7.484375 13.9375 -8.390625 C 13.9375 -9.117188 13.863281 -9.828125 13.71875 -10.515625 C 13.582031 -11.210938 13.375 -11.859375 13.09375 -12.453125 C 12.476562 -13.753906 11.664062 -14.660156 10.65625 -15.171875 C 10.113281 -15.441406 9.519531 -15.578125 8.875 -15.578125 C 8.09375 -15.578125 7.375 -15.375 6.71875 -14.96875 C 6.0625 -14.570312 5.519531 -14.03125 5.09375 -13.34375 C 4.675781 -12.664062 4.351562 -11.90625 4.125 -11.0625 C 3.90625 -10.21875 3.796875 -9.34375 3.796875 -8.4375 C 3.796875 -6.894531 4.078125 -5.53125 4.640625 -4.34375 C 4.941406 -3.707031 5.289062 -3.164062 5.6875 -2.71875 C 6.082031 -2.269531 6.546875 -1.914062 7.078125 -1.65625 C 7.628906 -1.394531 8.226562 -1.265625 8.875 -1.265625 Z M 8.875 -1.265625 "/></g></g></g><g fill="#000000" fill-opacity="1"><g transform="translate(38.802424, 186.608575)"><g><path d="M 0.375 0 L 0.375 -1.59375 L 3.078125 -1.59375 L 3.078125 -15.1875 L 0.375 -15.1875 L 0.375 -16.78125 L 8.265625 -16.78125 L 8.265625 -15.1875 L 5.71875 -15.1875 L 5.71875 -9.5 L 12.75 -9.5 L 12.75 -15.1875 L 10.15625 -15.1875 L 10.15625 -16.78125 L 18.09375 -16.78125 L 18.09375 -15.1875 L 15.375 -15.1875 L 15.375 -1.59375 L 18.09375 -1.59375 L 18.09375 0 L 10.15625 0 L 10.15625 -1.59375 L 12.75 -1.59375 L 12.75 -8.09375 L 5.71875 -8.09375 L 5.71875 -1.59375 L 8.265625 -1.59375 L 8.265625 0 Z M 0.375 0 "/></g></g></g><g fill="#000000" fill-opacity="1"><g transform="translate(57.25548, 186.608575)"><g><path d="M 0.09375 0 L 0.09375 -1.59375 L 2.09375 -1.59375 L 7.96875 -16.78125 L 10.625 -16.78125 L 16.59375 -1.59375 L 18.453125 -1.59375 L 18.453125 0 L 11.25 0 L 11.25 -1.59375 L 13.734375 -1.59375 L 12.1875 -5.625 L 5.734375 -5.625 L 4.265625 -1.59375 L 7.078125 -1.59375 L 7.078125 0 Z M 6.25 -7.03125 L 11.625 -7.03125 L 8.875 -14.59375 Z M 6.25 -7.03125 "/></g></g></g><g fill="#000000" fill-opacity="1"><g transform="translate(75.79779, 186.608575)"><g><path d="M 0.328125 0 L 0.328125 -1.59375 L 3.0625 -1.59375 L 3.0625 -15.1875 L 0.328125 -15.1875 L 0.328125 -16.78125 L 8.25 -16.78125 L 8.25 -15.1875 L 5.671875 -15.1875 L 5.671875 -1.59375 L 8.25 -1.59375 L 8.25 0 Z M 0.328125 0 "/></g></g></g><g fill="#000000" fill-opacity="1"><g transform="translate(84.377234, 186.608575)"><g><path d="M 0.375 0 L 0.375 -1.59375 L 3.078125 -1.59375 L 3.078125 -15.1875 L 0.375 -15.1875 L 0.375 -16.78125 L 8.265625 -16.78125 L 8.265625 -15.1875 L 5.71875 -15.1875 L 5.71875 -1.59375 L 12.015625 -1.59375 L 12.015625 -6.96875 L 14.09375 -6.96875 L 14.09375 0 Z M 0.375 0 "/></g></g></g><g fill="#000000" fill-opacity="1"><g transform="translate(98.76928, 186.608575)"><g/></g></g><g fill="#000000" fill-opacity="1"><g transform="translate(104.12446, 186.608575)"><g><path d="M 7.546875 0.296875 C 6.660156 0.296875 5.816406 0.210938 5.015625 0.046875 C 4.222656 -0.109375 3.492188 -0.347656 2.828125 -0.671875 C 2.148438 -0.992188 1.617188 -1.421875 1.234375 -1.953125 C 0.847656 -2.492188 0.65625 -3.09375 0.65625 -3.75 C 0.65625 -4.144531 0.75 -4.503906 0.9375 -4.828125 C 1.125 -5.160156 1.367188 -5.414062 1.671875 -5.59375 C 1.984375 -5.769531 2.316406 -5.859375 2.671875 -5.859375 C 2.992188 -5.859375 3.289062 -5.769531 3.5625 -5.59375 C 3.832031 -5.425781 4.046875 -5.195312 4.203125 -4.90625 C 4.367188 -4.625 4.453125 -4.328125 4.453125 -4.015625 C 4.453125 -3.535156 4.3125 -3.160156 4.03125 -2.890625 C 3.757812 -2.628906 3.375 -2.460938 2.875 -2.390625 C 3.414062 -2.015625 4.019531 -1.734375 4.6875 -1.546875 C 5.351562 -1.359375 6.179688 -1.265625 7.171875 -1.265625 C 8.835938 -1.265625 10.046875 -1.664062 10.796875 -2.46875 C 11.203125 -2.90625 11.40625 -3.425781 11.40625 -4.03125 C 11.40625 -4.726562 11.171875 -5.296875 10.703125 -5.734375 C 10.492188 -5.921875 10.195312 -6.101562 9.8125 -6.28125 C 9.425781 -6.46875 9 -6.632812 8.53125 -6.78125 C 8 -6.9375 7.4375 -7.085938 6.84375 -7.234375 C 5.351562 -7.609375 4.160156 -8.039062 3.265625 -8.53125 C 2.367188 -9.03125 1.742188 -9.585938 1.390625 -10.203125 C 1.046875 -10.816406 0.875 -11.550781 0.875 -12.40625 C 0.875 -13.300781 1.144531 -14.109375 1.6875 -14.828125 C 2.226562 -15.554688 2.984375 -16.125 3.953125 -16.53125 C 4.929688 -16.9375 6.039062 -17.140625 7.28125 -17.140625 C 8.363281 -17.140625 9.4375 -16.96875 10.5 -16.625 C 11.113281 -16.425781 11.640625 -16.1875 12.078125 -15.90625 C 12.515625 -15.632812 12.875 -15.289062 13.15625 -14.875 C 13.4375 -14.4375 13.578125 -13.960938 13.578125 -13.453125 C 13.578125 -12.785156 13.40625 -12.242188 13.0625 -11.828125 C 12.726562 -11.421875 12.265625 -11.21875 11.671875 -11.21875 C 11.335938 -11.21875 11.023438 -11.28125 10.734375 -11.40625 C 10.453125 -11.539062 10.222656 -11.726562 10.046875 -11.96875 C 9.878906 -12.21875 9.796875 -12.492188 9.796875 -12.796875 C 9.796875 -13.359375 9.941406 -13.785156 10.234375 -14.078125 C 10.523438 -14.378906 10.890625 -14.53125 11.328125 -14.53125 C 10.453125 -15.226562 9.195312 -15.578125 7.5625 -15.578125 C 6.84375 -15.578125 6.179688 -15.46875 5.578125 -15.25 C 4.984375 -15.039062 4.492188 -14.734375 4.109375 -14.328125 C 3.722656 -13.910156 3.53125 -13.421875 3.53125 -12.859375 C 3.53125 -12.578125 3.554688 -12.335938 3.609375 -12.140625 C 3.660156 -11.953125 3.765625 -11.753906 3.921875 -11.546875 C 4.078125 -11.316406 4.289062 -11.109375 4.5625 -10.921875 C 4.84375 -10.742188 5.226562 -10.566406 5.71875 -10.390625 C 6.1875 -10.203125 6.765625 -10.035156 7.453125 -9.890625 C 9.585938 -9.410156 11.1875 -8.835938 12.25 -8.171875 C 12.738281 -7.859375 13.132812 -7.5 13.4375 -7.09375 C 13.738281 -6.6875 13.957031 -6.269531 14.09375 -5.84375 C 14.195312 -5.4375 14.25 -4.960938 14.25 -4.421875 C 14.25 -3.441406 13.988281 -2.597656 13.46875 -1.890625 C 12.945312 -1.179688 12.1875 -0.640625 11.1875 -0.265625 C 10.1875 0.109375 8.972656 0.296875 7.546875 0.296875 Z M 7.546875 0.296875 "/></g></g></g><g fill="#000000" fill-opacity="1"><g transform="translate(119.040867, 186.608575)"><g><path d="M 0.328125 0 L 0.328125 -1.59375 L 3.0625 -1.59375 L 3.0625 -15.1875 L 0.328125 -15.1875 L 0.328125 -16.78125 L 8.25 -16.78125 L 8.25 -15.1875 L 5.671875 -15.1875 L 5.671875 -1.59375 L 8.25 -1.59375 L 8.25 0 Z M 0.328125 0 "/></g></g></g><g fill="#000000" fill-opacity="1"><g transform="translate(127.620311, 186.608575)"><g><path d="M 14.296875 0.375 C 13.847656 0.375 13.4375 0.289062 13.0625 0.125 C 12.695312 -0.03125 12.390625 -0.25 12.140625 -0.53125 C 11.898438 -0.789062 11.679688 -1.144531 11.484375 -1.59375 C 11.296875 -2.050781 11.132812 -2.550781 11 -3.09375 C 10.851562 -3.695312 10.726562 -4.300781 10.625 -4.90625 C 10.550781 -5.332031 10.429688 -5.722656 10.265625 -6.078125 C 10.109375 -6.429688 9.9375 -6.707031 9.75 -6.90625 C 9.570312 -7.082031 9.378906 -7.234375 9.171875 -7.359375 C 8.972656 -7.484375 8.804688 -7.566406 8.671875 -7.609375 C 8.554688 -7.640625 8.445312 -7.65625 8.34375 -7.65625 L 5.71875 -7.65625 L 5.71875 -1.59375 L 8.25 -1.59375 L 8.25 0 L 0.375 0 L 0.375 -1.59375 L 3.078125 -1.59375 L 3.078125 -15.1875 L 0.375 -15.1875 L 0.375 -16.78125 L 7.3125 -16.78125 C 7.800781 -16.78125 8.207031 -16.773438 8.53125 -16.765625 C 8.863281 -16.753906 9.285156 -16.722656 9.796875 -16.671875 C 10.410156 -16.617188 10.914062 -16.539062 11.3125 -16.4375 C 11.707031 -16.332031 12.15625 -16.164062 12.65625 -15.9375 C 13.113281 -15.71875 13.484375 -15.457031 13.765625 -15.15625 C 14.046875 -14.863281 14.285156 -14.472656 14.484375 -13.984375 C 14.660156 -13.515625 14.75 -12.972656 14.75 -12.359375 C 14.75 -11.054688 14.347656 -10.085938 13.546875 -9.453125 C 13.148438 -9.140625 12.71875 -8.890625 12.25 -8.703125 C 11.789062 -8.515625 11.238281 -8.351562 10.59375 -8.21875 C 11.03125 -8.132812 11.390625 -8.015625 11.671875 -7.859375 C 11.960938 -7.703125 12.210938 -7.492188 12.421875 -7.234375 C 12.597656 -6.992188 12.742188 -6.734375 12.859375 -6.453125 C 12.984375 -6.179688 13.109375 -5.816406 13.234375 -5.359375 C 13.328125 -4.992188 13.460938 -4.394531 13.640625 -3.5625 C 13.679688 -3.300781 13.742188 -3.035156 13.828125 -2.765625 C 13.921875 -2.503906 14.015625 -2.300781 14.109375 -2.15625 C 14.203125 -1.988281 14.320312 -1.851562 14.46875 -1.75 C 14.625 -1.644531 14.796875 -1.59375 14.984375 -1.59375 C 15.742188 -1.59375 16.125 -2.296875 16.125 -3.703125 L 16.125 -5.25 L 17.640625 -5.25 L 17.640625 -3.609375 C 17.640625 -0.953125 16.523438 0.375 14.296875 0.375 Z M 7.109375 -9.328125 C 8.304688 -9.328125 9.273438 -9.410156 10.015625 -9.578125 C 10.753906 -9.753906 11.332031 -10.050781 11.75 -10.46875 C 12.1875 -10.894531 12.40625 -11.457031 12.40625 -12.15625 C 12.40625 -12.757812 12.296875 -13.257812 12.078125 -13.65625 C 11.859375 -14.050781 11.515625 -14.363281 11.046875 -14.59375 C 10.585938 -14.800781 10.046875 -14.953125 9.421875 -15.046875 C 8.796875 -15.140625 7.992188 -15.1875 7.015625 -15.1875 L 5.71875 -15.1875 L 5.71875 -9.328125 Z M 7.109375 -9.328125 "/></g></g></g><g fill="#000000" fill-opacity="1"><g transform="translate(145.281247, 186.608575)"><g><path d="M 0.09375 0 L 0.09375 -1.59375 L 2.09375 -1.59375 L 7.96875 -16.78125 L 10.625 -16.78125 L 16.59375 -1.59375 L 18.453125 -1.59375 L 18.453125 0 L 11.25 0 L 11.25 -1.59375 L 13.734375 -1.59375 L 12.1875 -5.625 L 5.734375 -5.625 L 4.265625 -1.59375 L 7.078125 -1.59375 L 7.078125 0 Z M 6.25 -7.03125 L 11.625 -7.03125 L 8.875 -14.59375 Z M 6.25 -7.03125 "/></g></g></g><g fill="#000000" fill-opacity="1"><g transform="translate(163.823557, 186.608575)"><g><path d="M 5.03125 2.234375 C 4.132812 2.234375 3.332031 2.070312 2.625 1.75 C 1.925781 1.425781 1.378906 0.988281 0.984375 0.4375 C 0.585938 -0.101562 0.390625 -0.707031 0.390625 -1.375 C 0.390625 -1.769531 0.472656 -2.117188 0.640625 -2.421875 C 0.804688 -2.722656 1.035156 -2.953125 1.328125 -3.109375 C 1.617188 -3.273438 1.9375 -3.359375 2.28125 -3.359375 C 2.613281 -3.359375 2.921875 -3.28125 3.203125 -3.125 C 3.484375 -2.976562 3.707031 -2.769531 3.875 -2.5 C 4.050781 -2.226562 4.140625 -1.921875 4.140625 -1.578125 C 4.140625 -1.203125 4.015625 -0.84375 3.765625 -0.5 C 3.523438 -0.164062 3.238281 0.0976562 2.90625 0.296875 C 3.03125 0.492188 3.300781 0.65625 3.71875 0.78125 C 4.132812 0.914062 4.53125 0.984375 4.90625 0.984375 C 5.34375 0.984375 5.722656 0.910156 6.046875 0.765625 C 6.367188 0.628906 6.628906 0.441406 6.828125 0.203125 C 7.003906 -0.0234375 7.144531 -0.328125 7.25 -0.703125 C 7.363281 -1.085938 7.441406 -1.507812 7.484375 -1.96875 C 7.523438 -2.425781 7.546875 -2.925781 7.546875 -3.46875 L 7.546875 -15.1875 L 4.40625 -15.1875 L 4.40625 -16.78125 L 12.8125 -16.78125 L 12.8125 -15.1875 L 10.15625 -15.1875 L 10.15625 -3.765625 C 10.15625 -3.035156 10.109375 -2.394531 10.015625 -1.84375 C 9.929688 -1.289062 9.78125 -0.757812 9.5625 -0.25 C 9.332031 0.289062 9.023438 0.734375 8.640625 1.078125 C 8.265625 1.429688 7.773438 1.710938 7.171875 1.921875 C 6.546875 2.128906 5.832031 2.234375 5.03125 2.234375 Z M 5.03125 2.234375 "/></g></g></g></svg>